<svg xmlns="http://www.w3.org/2000/svg" viewBox="0 0 130 160" fill="none" stroke="#b39076" stroke-width="1.4" stroke-linecap="round" stroke-linejoin="round">
  <!-- Engraved sunrise stamp for empty states (same line style as the reference stamps). -->
  <g transform="translate(5 5)">
    <rect width="120" height="150" stroke-width="3.5" stroke-dasharray="0 7.5"/>
    <rect x="10" y="10" width="100" height="130"/>
    <path d="M10 108h100M30 120h60M44 129h32"/>
    <path d="M16 70h88M40 70a20 20 0 0 1 40 0"/>
    <path d="M82.6 61.8l7.5-2.7M78.4 54.6l6.1-5.2M72 49.2l4-6.9M64.2 46.4l1.4-7.9M55.8 46.4l-1.4-7.9M48 49.2l-4-6.9M41.6 54.6l-6.1-5.2M37.4 61.8l-7.5-2.7"/>
    <path d="M20 80q6-4 12 0t12 0 12 0 12 0 12 0 12 0 12 0M26 88q6-4 12 0t12 0 12 0 12 0 12 0 12 0M32 96q6-4 12 0t12 0 12 0 12 0 12 0"/>
    <path d="M24 28q4-4 8 0q4-4 8 0M86 24q3-3 6 0q3-3 6 0"/>
  </g>
</svg>
